name D:\school\WTK\thesis\model\3dpredictsim\Results\MidTarsalJoint\Fal_s1_bCst_PF_Gefen2002_ls150_MT_nl_Gefen2002_MTP_Mf1_spx10_PIM_w1e+03_w1e+04_ig23.mot
datacolumns 128
datarows 4
range 0.54698948 0.57980884
endheader
time	pelvis_tilt	pelvis_list	pelvis_rotation	pelvis_tx	pelvis_ty	pelvis_tz	hip_flexion_l	hip_adduction_l	hip_rotation_l	hip_flexion_r	hip_adduction_r	hip_rotation_r	knee_angle_l	knee_angle_r	ankle_angle_l	ankle_angle_r	subtalar_angle_l	subtalar_angle_r	mtj_angle_l	mtj_angle_r	mtp_angle_l	mtp_angle_r	lumbar_extension	lumbar_bending	lumbar_rotation	arm_flex_l	arm_add_l	arm_rot_l	arm_flex_r	arm_add_r	arm_rot_r	elbow_flex_l	elbow_flex_r	pro_sup_l	pro_sup_r	glut_med1_l/activation	glut_med2_l/activation	glut_med3_l/activation	glut_min1_l/activation	glut_min2_l/activation	glut_min3_l/activation	semimem_l/activation	semiten_l/activation	bifemlh_l/activation	bifemsh_l/activation	sar_l/activation	add_long_l/activation	add_brev_l/activation	add_mag1_l/activation	add_mag2_l/activation	add_mag3_l/activation	tfl_l/activation	pect_l/activation	grac_l/activation	glut_max1_l/activation	glut_max2_l/activation	glut_max3_l/activation	iliacus_l/activation	psoas_l/activation	quad_fem_l/activation	gem_l/activation	peri_l/activation	rect_fem_l/activation	vas_med_l/activation	vas_int_l/activation	vas_lat_l/activation	med_gas_l/activation	lat_gas_l/activation	soleus_l/activation	tib_post_l/activation	flex_dig_l/activation	flex_hal_l/activation	tib_ant_l/activation	per_brev_l/activation	per_long_l/activation	per_tert_l/activation	ext_dig_l/activation	ext_hal_l/activation	ercspn_l/activation	intobl_l/activation	extobl_l/activation	glut_med1_r/activation	glut_med2_r/activation	glut_med3_r/activation	glut_min1_r/activation	glut_min2_r/activation	glut_min3_r/activation	semimem_r/activation	semiten_r/activation	bifemlh_r/activation	bifemsh_r/activation	sar_r/activation	add_long_r/activation	add_brev_r/activation	add_mag1_r/activation	add_mag2_r/activation	add_mag3_r/activation	tfl_r/activation	pect_r/activation	grac_r/activation	glut_max1_r/activation	glut_max2_r/activation	glut_max3_r/activation	iliacus_r/activation	psoas_r/activation	quad_fem_r/activation	gem_r/activation	peri_r/activation	rect_fem_r/activation	vas_med_r/activation	vas_int_r/activation	vas_lat_r/activation	med_gas_r/activation	lat_gas_r/activation	soleus_r/activation	tib_post_r/activation	flex_dig_r/activation	flex_hal_r/activation	tib_ant_r/activation	per_brev_r/activation	per_long_r/activation	per_tert_r/activation	ext_dig_r/activation	ext_hal_r/activation	ercspn_r/activation	intobl_r/activation	extobl_r/activation	
          0.54698948	         -2.93017643	          1.01824816	         -4.27874040	          0.68373685	          0.92328677	          0.00218825	         25.56505090	          3.04619434	         -0.32063998	        -13.55185719	          0.62429041	          8.36810038	         -7.67520382	        -14.04364793	          2.81768604	         -9.08113932	         -3.22132209	         12.38832714	         -1.52221459	         14.85447984	         -1.59387068	          7.74015480	         -1.38258131	          0.03834150	          1.65615606	         -7.18927310	        -13.45181970	          5.47051696	          3.99634800	        -13.45696624	         13.05877452	         17.98893118	         32.98754415	         86.51662706	         86.51662706	          0.09225623	          0.05728211	          0.05000046	          0.05911665	          0.05911650	          0.05000073	          0.11699049	          0.05911642	          0.12798240	          0.05000058	          0.05000035	          0.11544753	          0.21712957	          0.21813626	          0.15971770	          0.12045995	          0.05000026	          0.05000498	          0.06115790	          0.05049468	          0.06834865	          0.09403128	          0.06515901	          0.06989632	          0.46329959	          0.13658052	          0.05000070	          0.06989746	          0.09340932	          0.11573660	          0.08625561	          0.05000001	          0.05000004	          0.05000000	          0.06989518	          0.06989507	          0.06989540	          0.48802754	          0.20065316	          0.19564006	          0.21089246	          0.57879160	          0.15827961	          0.05000001	          0.09966859	          0.09290213	          0.29321925	          0.18491717	          0.10751351	          0.28874408	          0.26034189	          0.17773929	          0.05000652	          0.05000048	          0.05000053	          0.05000041	          0.11258757	          0.05000039	          0.05000111	          0.05000134	          0.05000438	          0.05000412	          0.33623690	          0.05000331	          0.05000134	          0.05229387	          0.05000254	          0.05000295	          0.28732981	          0.49329061	          0.05000088	          0.08263928	          0.09758569	          0.22852438	          0.06851178	          0.07131586	          0.07420056	          0.24921870	          0.33677957	          0.34908051	          0.30273411	          0.24897139	          0.34608636	          0.05000001	          0.23249511	          0.21151895	          0.05000002	          0.05911649	          0.06989481	          0.05000001	          0.06989878	          0.08530112	
          0.55792927	         -2.92884895	          1.10253581	         -4.46848583	          0.70026522	          0.92290674	          0.00189961	         24.97564061	          3.34813497	         -0.10950218	        -13.68876723	          0.34165829	          8.22651045	         -8.25451993	        -15.34112328	          2.01278018	         -9.53044178	         -3.49592474	         13.32804594	         -1.59501824	         12.90043195	         -1.67346623	         10.81225214	         -1.18474361	         -0.17037602	          1.71024376	         -7.95405427	        -13.45021090	          5.40918523	          3.69792159	        -13.46617448	         13.34178761	         17.67695254	         33.89302926	         86.51662706	         86.51662706	          0.19450053	          0.05000006	          0.05000024	          0.05000020	          0.05000014	          0.05000024	          0.11054991	          0.05000008	          0.11360880	          0.05000007	          0.06989537	          0.09764422	          0.19248242	          0.18449721	          0.13508751	          0.14551071	          0.05000095	          0.06990421	          0.05172697	          0.05000017	          0.14152645	          0.12758223	          0.06989411	          0.05911803	          0.39185317	          0.11551825	          0.09770789	          0.05911845	          0.07900473	          0.09788887	          0.07295415	          0.06925816	          0.06989495	          0.06989516	          0.05911649	          0.05911647	          0.05911671	          0.52777962	          0.33949014	          0.18832626	          0.17837186	          0.62528062	          0.13387098	          0.05000000	          0.08539326	          0.07857548	          0.30598110	          0.15640069	          0.09093361	          0.24421637	          0.22019405	          0.15032974	          0.05000129	          0.05000058	          0.05000319	          0.05000037	          0.09522538	          0.05000027	          0.05000011	          0.05000047	          0.05000108	          0.05000048	          0.28438514	          0.05000052	          0.05911310	          0.05912297	          0.05911784	          0.05911654	          0.24302007	          0.45193089	          0.06348525	          0.06989547	          0.08253679	          0.19328313	          0.06837525	          0.06922368	          0.07021995	          0.22524670	          0.30355105	          0.31261361	          0.25604879	          0.21057699	          0.29271565	          0.05000032	          0.26424276	          0.17890025	          0.40872938	          0.05000002	          0.05911622	          0.05520668	          0.05911953	          0.07214677	
          0.56886906	         -2.92357044	          1.20838553	         -4.62930959	          0.71697121	          0.92252760	          0.00161199	         24.32984336	          3.60153406	          0.12589251	        -13.73994054	          0.05318816	          8.07013427	         -8.86080942	        -16.76289113	          1.07574545	        -10.06096330	         -3.76671865	         14.19884534	         -1.55781038	         10.69980659	         -1.72483085	         14.23729943	         -0.97675390	         -0.40946580	          1.75625733	         -8.71192848	        -13.45648264	          5.36394468	          3.35382073	        -13.47769851	         13.61496783	         17.37949242	         34.75407047	         86.51662706	         86.51662706	          0.32852572	          0.26641240	          0.25096757	          0.31503645	          0.25114802	          0.16316970	          0.10147756	          0.11645668	          0.10689550	          0.08263437	          0.05911680	          0.08258632	          0.16279934	          0.15604569	          0.11425587	          0.17611881	          0.05000037	          0.05912443	          0.12400429	          0.20342209	          0.18454902	          0.15749857	          0.05911588	          0.05000175	          0.33142462	          0.09770402	          0.08264025	          0.05000167	          0.06682127	          0.08279323	          0.06170376	          0.05857770	          0.05911629	          0.05911647	          0.05000001	          0.05000008	          0.05000023	          0.68838778	          0.37317589	          0.20827702	          0.52488346	          0.76707311	          0.37845397	          0.06577989	          0.11552154	          0.06645818	          0.28924069	          0.13228179	          0.07691054	          0.26237306	          0.18623747	          0.12714707	          0.05000185	          0.05000015	          0.05000010	          0.05000042	          0.08054055	          0.15753924	          0.05251755	          0.05000070	          0.05000191	          0.05000139	          0.24052958	          0.08261923	          0.05000051	          0.05000579	          0.05000136	          0.05000038	          0.20554352	          0.46042501	          0.05369507	          0.05911680	          0.06980862	          0.16347652	          0.08227399	          0.08596203	          0.08950114	          0.19905575	          0.27201482	          0.28240258	          0.21656292	          0.17810346	          0.24757533	          0.17095004	          0.24072952	          0.15131166	          0.65809008	          0.20397172	          0.05000006	          0.08004044	          0.05000258	          0.06102086	
          0.57980884	         -2.91613193	          1.31804739	         -4.75117720	          0.73358285	          0.92227970	          0.00129280	         23.73990386	          3.85958593	          0.35179365	        -13.62615008	         -0.21389178	          7.90531428	         -9.47752950	        -18.41335268	         -0.21840876	        -10.66001920	         -4.03049527	         15.04139480	         -1.37087535	          8.32218271	         -1.85640146	         17.68246608	         -0.78497471	         -0.66096516	          1.79734692	         -9.39598384	        -13.46186447	          5.34517010	          3.01229277	        -13.49087767	         13.89356322	         17.05357855	         35.51949021	         86.51662706	         86.51662706	          0.43430419	          0.38463799	          0.32903728	          0.26645496	          0.21250009	          0.18510152	          0.08582861	          0.10582262	          0.09041173	          0.06989117	          0.05000038	          0.06985056	          0.19953090	          0.25209316	          0.25988186	          0.21390116	          0.05000027	          0.05000729	          0.10488356	          0.28829109	          0.24916474	          0.23452529	          0.05000004	          0.05000005	          0.28031492	          0.08263696	          0.06989626	          0.05000005	          0.23247532	          0.25772320	          0.20277807	          0.05000001	          0.05000003	          0.05000000	          0.05000002	          0.05000016	          0.05000010	          0.79392358	          0.31562763	          0.17615818	          0.68953630	          0.77026481	          0.41921546	          0.08452934	          0.09770671	          0.05620952	          0.24463628	          0.11188233	          0.06504999	          0.22191202	          0.15751741	          0.10753945	          0.05007382	          0.05000070	          0.05000049	          0.05000021	          0.06812029	          0.23400611	          0.29377012	          0.10942255	          0.05002829	          0.13978171	          0.20343707	          0.06987865	          0.05000073	          0.05000197	          0.05000150	          0.05000170	          0.17384620	          0.42426431	          0.05000009	          0.05000058	          0.05904330	          0.13826645	          0.09770774	          0.09770995	          0.09770735	          0.16835896	          0.23006721	          0.23885269	          0.18316626	          0.15063774	          0.20939619	          0.30724977	          0.20360633	          0.12797757	          0.75341026	          0.21934765	          0.05000007	          0.10765293	          0.05000000	          0.05161071	
